<svg width="589" height="154" viewBox="0 0 589 154" fill="none" xmlns="http://www.w3.org/2000/svg">
<path d="M90.32 101.56C84.4867 101.56 79.33 101.163 74.85 100.37V91.83C80.6367 92.2967 84.7433 92.53 87.17 92.53C89.0833 92.53 90.5767 92.4367 91.65 92.25C92.7233 92.0633 93.4933 91.7367 93.96 91.27C94.38 90.85 94.6367 90.3367 94.73 89.73C94.87 89.1233 94.94 88.26 94.94 87.14C94.94 85.6467 94.8467 84.5967 94.66 83.99C94.4733 83.3367 94.0767 82.87 93.47 82.59C92.91 82.31 91.93 82.0533 90.53 81.82L82.76 80.7C79.2133 80.1867 76.81 78.81 75.55 76.57C74.29 74.33 73.66 71.11 73.66 66.91C73.66 62.85 74.3367 59.7467 75.69 57.6C77.0433 55.4533 78.8867 54.03 81.22 53.33C83.5533 52.63 86.5167 52.28 90.11 52.28C94.5433 52.28 99.0933 52.7467 103.76 53.68V62.08C99.56 61.5667 95.8267 61.31 92.56 61.31C89.1067 61.31 86.89 61.6367 85.91 62.29C85.35 62.6167 85 63.0833 84.86 63.69C84.72 64.25 84.65 65.1367 84.65 66.35C84.65 67.7033 84.72 68.66 84.86 69.22C85 69.78 85.3033 70.2 85.77 70.48C86.2833 70.7133 87.1467 70.9233 88.36 71.11L96.69 72.3C98.5567 72.58 100.097 73.0467 101.31 73.7C102.57 74.3533 103.597 75.4733 104.39 77.06C105.37 79.1133 105.86 82.0533 105.86 85.88C105.86 90.36 105.23 93.7433 103.97 96.03C102.71 98.3167 100.983 99.81 98.79 100.51C96.6433 101.21 93.82 101.56 90.32 101.56ZM145.278 100.37C143.971 100.697 142.314 100.977 140.308 101.21C138.301 101.443 136.411 101.56 134.638 101.56C129.364 101.56 125.468 100.837 122.948 99.39C120.474 97.8967 118.818 95.47 117.978 92.11C117.184 88.75 116.788 83.6867 116.788 76.92C116.788 70.2467 117.208 65.23 118.048 61.87C118.888 58.4633 120.544 56.0133 123.018 54.52C125.538 53.0267 129.411 52.28 134.638 52.28C136.458 52.28 138.324 52.3967 140.238 52.63C142.198 52.8633 143.808 53.1667 145.068 53.54V61.94C141.101 61.52 138.464 61.31 137.158 61.31C133.984 61.31 131.791 61.6367 130.578 62.29C129.411 62.8967 128.664 64.18 128.338 66.14C128.011 68.0533 127.848 71.6467 127.848 76.92C127.848 82.1933 128.011 85.81 128.338 87.77C128.664 89.6833 129.411 90.9667 130.578 91.62C131.791 92.2267 133.984 92.53 137.158 92.53C139.864 92.53 142.571 92.32 145.278 91.9V100.37ZM180.854 101V81.54H167.974V101H157.054V52.84H167.974V72.02H180.854V52.84H191.774V101H180.854ZM222.511 101.56C216.677 101.56 212.501 100.86 209.981 99.46C207.507 98.0133 205.944 95.7267 205.291 92.6C204.684 89.4267 204.381 84.2 204.381 76.92C204.381 69.64 204.684 64.4367 205.291 61.31C205.944 58.1367 207.507 55.85 209.981 54.45C212.501 53.0033 216.677 52.28 222.511 52.28C228.391 52.28 232.567 53.0033 235.041 54.45C237.561 55.85 239.124 58.1133 239.731 61.24C240.337 64.3667 240.641 69.5933 240.641 76.92C240.641 84.2467 240.337 89.4733 239.731 92.6C239.124 95.7267 237.561 98.0133 235.041 99.46C232.567 100.86 228.391 101.56 222.511 101.56ZM222.511 92.53C225.031 92.53 226.711 92.2733 227.551 91.76C228.437 91.2467 228.997 90.0333 229.231 88.12C229.464 86.2067 229.581 82.4733 229.581 76.92C229.581 71.3667 229.464 67.6333 229.231 65.72C228.997 63.8067 228.437 62.5933 227.551 62.08C226.711 61.5667 225.031 61.31 222.511 61.31C219.991 61.31 218.287 61.5667 217.401 62.08C216.561 62.5933 216.024 63.8067 215.791 65.72C215.557 67.6333 215.441 71.3667 215.441 76.92C215.441 82.4733 215.557 86.2067 215.791 88.12C216.024 90.0333 216.561 91.2467 217.401 91.76C218.287 92.2733 219.991 92.53 222.511 92.53ZM270.272 101.56C264.439 101.56 260.262 100.86 257.742 99.46C255.269 98.0133 253.705 95.7267 253.052 92.6C252.445 89.4267 252.142 84.2 252.142 76.92C252.142 69.64 252.445 64.4367 253.052 61.31C253.705 58.1367 255.269 55.85 257.742 54.45C260.262 53.0033 264.439 52.28 270.272 52.28C276.152 52.28 280.329 53.0033 282.802 54.45C285.322 55.85 286.885 58.1133 287.492 61.24C288.099 64.3667 288.402 69.5933 288.402 76.92C288.402 84.2467 288.099 89.4733 287.492 92.6C286.885 95.7267 285.322 98.0133 282.802 99.46C280.329 100.86 276.152 101.56 270.272 101.56ZM270.272 92.53C272.792 92.53 274.472 92.2733 275.312 91.76C276.199 91.2467 276.759 90.0333 276.992 88.12C277.225 86.2067 277.342 82.4733 277.342 76.92C277.342 71.3667 277.225 67.6333 276.992 65.72C276.759 63.8067 276.199 62.5933 275.312 62.08C274.472 61.5667 272.792 61.31 270.272 61.31C267.752 61.31 266.049 61.5667 265.162 62.08C264.322 62.5933 263.785 63.8067 263.552 65.72C263.319 67.6333 263.202 71.3667 263.202 76.92C263.202 82.4733 263.319 86.2067 263.552 88.12C263.785 90.0333 264.322 91.2467 265.162 91.76C266.049 92.2733 267.752 92.53 270.272 92.53ZM301.093 101V52.84H311.943V91.62H327.903V101H301.093ZM338.601 101V52.84H366.321V61.87H349.451V73.42H364.291V82.52H349.451V101H338.601ZM377.817 101V52.84H388.667V91.62H404.627V101H377.817ZM432.265 101.56C426.431 101.56 422.255 100.86 419.735 99.46C417.261 98.0133 415.698 95.7267 415.045 92.6C414.438 89.4267 414.135 84.2 414.135 76.92C414.135 69.64 414.438 64.4367 415.045 61.31C415.698 58.1367 417.261 55.85 419.735 54.45C422.255 53.0033 426.431 52.28 432.265 52.28C438.145 52.28 442.321 53.0033 444.795 54.45C447.315 55.85 448.878 58.1133 449.485 61.24C450.091 64.3667 450.395 69.5933 450.395 76.92C450.395 84.2467 450.091 89.4733 449.485 92.6C448.878 95.7267 447.315 98.0133 444.795 99.46C442.321 100.86 438.145 101.56 432.265 101.56ZM432.265 92.53C434.785 92.53 436.465 92.2733 437.305 91.76C438.191 91.2467 438.751 90.0333 438.985 88.12C439.218 86.2067 439.335 82.4733 439.335 76.92C439.335 71.3667 439.218 67.6333 438.985 65.72C438.751 63.8067 438.191 62.5933 437.305 62.08C436.465 61.5667 434.785 61.31 432.265 61.31C429.745 61.31 428.041 61.5667 427.155 62.08C426.315 62.5933 425.778 63.8067 425.545 65.72C425.311 67.6333 425.195 71.3667 425.195 76.92C425.195 82.4733 425.311 86.2067 425.545 88.12C425.778 90.0333 426.315 91.2467 427.155 91.76C428.041 92.2733 429.745 92.53 432.265 92.53ZM495.232 101L489.072 69.43H488.652L482.492 101H468.212L459.112 52.84H470.032L475.842 88.89H476.262L483.122 52.84H494.952L501.952 88.89H502.372L507.832 52.84H518.682L509.512 101H495.232Z" fill="white"/>
</svg>
